<svg width="113" height="86" viewBox="0 0 113 86" fill="none" xmlns="http://www.w3.org/2000/svg">
<path d="M102.727 2.52941C97.0259 0.758824 90.7595 0 84.75 0C74.7341 0 63.9477 2.02353 56.5 7.58824C49.0523 2.02353 38.2659 0 28.25 0C18.2341 0 7.44773 2.02353 0 7.58824V81.7C0 82.9647 1.28409 84.2294 2.56818 84.2294C3.08182 84.2294 3.33864 83.9765 3.85227 83.9765C10.7864 80.6882 20.8023 78.4118 28.25 78.4118C38.2659 78.4118 49.0523 80.4353 56.5 86C63.4341 81.7 76.0182 78.4118 84.75 78.4118C93.225 78.4118 101.957 79.9294 109.148 83.7235C109.661 83.9765 109.918 83.9765 110.432 83.9765C111.716 83.9765 113 82.7118 113 81.4471V7.58824C109.918 5.31176 106.58 3.79412 102.727 2.52941ZM102.727 70.8235C97.0773 69.0529 90.9136 68.2941 84.75 68.2941C76.0182 68.2941 63.4341 71.5824 56.5 75.8824V17.7059C63.4341 13.4059 76.0182 10.1176 84.75 10.1176C90.9136 10.1176 97.0773 10.8765 102.727 12.6471V70.8235Z" fill="#FC773E"/>
</svg>
